<svg id="Capa_1" enable-background="new 0 0 512 512" height="512" viewBox="0 0 512 512" width="512" xmlns="http://www.w3.org/2000/svg"><path d="m467 31h-302c-24.813 0-45 20.187-45 45v15h-15c-24.813 0-45 20.187-45 45v15h-15c-24.813 0-45 20.187-45 45v180c0 24.813 20.187 45 45 45h15v45c0 5.532 3.045 10.615 7.922 13.225 4.865 2.604 10.784 2.332 15.398-.744l86.222-57.481h177.458c24.813 0 45-20.187 45-45v-15h15c24.813 0 45-20.187 45-45v-15h15c24.813 0 45-20.187 45-45v-180c0-24.813-20.187-45-45-45zm-105 345c0 8.271-6.729 15-15 15h-182c-2.961 0-5.856.876-8.32 2.519l-66.68 44.453v-31.972c0-8.284-6.716-15-15-15h-30c-8.271 0-15-6.729-15-15v-180c0-8.271 6.729-15 15-15h302c8.271 0 15 6.729 15 15zm60-60c0 8.271-6.729 15-15 15h-15v-135c0-24.813-20.187-45-45-45h-257v-15c0-8.271 6.729-15 15-15h302c8.271 0 15 6.729 15 15zm60-60c0 8.271-6.729 15-15 15h-15v-135c0-24.813-20.187-45-45-45h-257v-15c0-8.271 6.729-15 15-15h302c8.271 0 15 6.729 15 15z"/><path d="m287 241h-182c-8.284 0-15 6.716-15 15s6.716 15 15 15h182c8.284 0 15-6.716 15-15s-6.716-15-15-15z"/><path d="m287 301h-182c-8.284 0-15 6.716-15 15s6.716 15 15 15h182c8.284 0 15-6.716 15-15s-6.716-15-15-15z"/></svg>